<svg width="33" height="42" viewBox="0 0 33 42" fill="none" xmlns="http://www.w3.org/2000/svg">
<path fill-rule="evenodd" clip-rule="evenodd" d="M33.0003 0.852051V41.0754L2.05789 39.9294L0.943115 3.14185L33.0003 0.852051ZM5.05757 6.85815L5.94279 36.0706L29.0003 36.9246V5.14796L5.05757 6.85815Z" fill="#0069F6"/>
<path fill-rule="evenodd" clip-rule="evenodd" d="M27.0003 2V8H23.0003V2H27.0003ZM21.0579 15.4765C20.7545 14.2396 18.9304 12.8096 16.5802 13.0219L15.3537 13.1319C13.6559 13.2851 13.0003 14.3412 13.0003 14.926C13.0003 16.0227 13.7819 17.3057 15.5088 18.007M15.5088 18.007L19.4583 19.6108C20.8363 20.1699 22.2117 20.8589 23.245 21.8783C24.3625 22.9808 25.0003 24.3899 25.0003 26.13C25.0003 28.1878 24.1331 29.9779 22.6107 31.2136C21.2564 32.3129 19.492 32.8923 17.5663 32.9863V33H17.0003V32.9908C15.3854 32.9368 13.8488 32.6371 12.4989 31.8562C10.9476 30.9589 9.87031 29.5601 9.14339 27.7428L8.40061 25.8858L12.1145 24.4003L12.8573 26.2572C13.3304 27.4399 13.8921 28.0411 14.5017 28.3938C15.107 28.7439 15.9599 28.965 17.2455 28.9962C18.5708 28.9547 19.511 28.5778 20.0899 28.1079C20.6675 27.6391 21.0003 26.9942 21.0003 26.13C21.0003 25.4821 20.8072 25.0922 20.4357 24.7257C19.9801 24.2763 19.2082 23.826 17.9543 23.3172L14.0039 21.713C11.1308 20.5463 9.00034 18.0093 9.00034 14.926C9.00034 11.6309 11.9412 9.4231 14.9949 9.14807L16.2204 9.03811C19.982 8.69891 24.0462 10.8687 24.9428 14.5235L25.4192 16.4659L21.5344 17.4189L21.0579 15.4765" fill="#0069F6"/>
</svg>
