<?xml version="1.0" encoding="UTF-8"?>
<svg id="Layer_2" xmlns="http://www.w3.org/2000/svg" viewBox="0 0 1443.09 301">
  <defs>
    <style>
      .cls-1 {
        fill: #522b95;
      }
    </style>
  </defs>
  <g id="Capa_1">
    <g>
      <path class="cls-1" d="M463.56,158.74l-20.11,21.54v57.35h-30.79V0h30.79v138.78l70.68-75.41h35.81v3.17l-67.23,71.61,80.74,96.32v3.17h-34.87l-65.03-78.89Z"/>
      <path class="cls-1" d="M585.78,145.22c0-55.45,27.02-92.2,76.97-92.2s76.97,36.75,76.97,92.2-27.02,92.2-76.97,92.2-76.97-36.75-76.97-92.2ZM709.87,145.22c0-37.07-12.88-64.32-47.12-64.32s-47.12,27.25-47.12,64.32,12.88,64.64,47.12,64.64,47.12-27.56,47.12-64.64Z"/>
      <path class="cls-1" d="M915.07,207.79c-8.15-2.41-12.14-8.29-12.14-17.35V.73h-29.2v66.98c-9.53-8.63-21.82-13.74-35.96-13.74-38.11,0-71.3,32.6-71.3,91.08,0,53.56,34.33,90.33,75.3,92.58,1.33.07,2.65.11,3.99.11s2.65-.03,3.95-.11c14.06-.72,26.55-5.23,37.24-11.08,6.71,5.1,15.6,7.94,28.12,8.34.17.01.34.01.5.02v-26.99c-.18-.04-.34-.08-.5-.14ZM873.74,204.82c-8.3,3.52-17.22,5.11-27.97,5.11-28.27,0-50.1-25.57-50.1-64.88s15.06-62.96,48.25-62.96c11.37,0,23.05,5.43,29.81,13.42v109.3Z"/>
      <path class="cls-1" d="M1026.51,82.7v-18.47h-.54v-8.03c0-12.99,3.14-27.56,26.07-27.56h31.42V.11h-47.44c-34.56,0-39.27,27.57-39.27,56.08v26.5h-58.2v27.88h58.2v5.61h.54v128.73c0,12.99-3.14,27.56-26.07,27.56h-31.42v28.52h47.44c34.56,0,39.27-27.57,39.27-56.08V110.58h60.63v-27.88h-60.63Z"/>
      <path class="cls-1" d="M1205.35,82.7v-18.47h-.54v-8.03c0-12.99,3.14-27.56,26.07-27.56h31.42V.11h-47.44c-34.56,0-39.27,27.57-39.27,56.08v26.5h-58.21v27.88h58.21v5.61h.54v128.73c0,12.99-3.14,27.56-26.07,27.56h-31.42v28.52h47.44c34.56,0,39.27-27.57,39.27-56.08V110.58h60.63v-27.88h-60.63Z"/>
      <path class="cls-1" d="M1288.75,145.85c0-59.57,31.1-92.84,80.11-92.84,60.95,0,84.19,59.25,70.37,110.26h-119.69c4.4,34.54,28.59,46.89,57.18,46.89,9.42,0,28.27-1.9,49.32-11.4l10.37,24.08c-27.96,12.99-46.5,14.57-62.83,14.57-49.95,0-84.82-32.64-84.82-91.57ZM1415.67,136.35c2.51-29.47-15.08-55.45-47.75-55.45s-49.64,25.98-49.64,55.45h97.39Z"/>
      <g>
        <path class="cls-1" d="M159.47,227.86c-2.24,0-4.48-.53-6.59-1.58L10.59,155.47c-.28-.12-.54-.26-.8-.43-1.26-.69-2.47-1.6-3.61-2.71-.29-.29-.53-.56-.77-.84-1.01-1.1-1.83-2.25-2.52-3.48-.11-.17-.21-.34-.31-.53-.59-1.11-1.09-2.32-1.51-3.6l-.09-.33c-.06-.24-.11-.48-.15-.71v-.07c-.1-.33-.18-.67-.25-1.04-.39-1.74-.58-3.35-.58-4.94,0-1.48.18-3.03.57-4.86.07-.38.15-.73.25-1.11.07-.35.12-.61.19-.87l.05-.18c.41-1.27.9-2.47,1.48-3.56.14-.28.28-.5.38-.65.69-1.21,1.5-2.34,2.48-3.42.28-.3.51-.55.76-.8l.08-.08c1.11-1.06,2.29-1.95,3.52-2.64.22-.15.44-.27.68-.38L141.78,52.88v-23.96c.05-.99.15-1.99.32-2.96.17-1.01.41-2.03.72-3.01,1.72-5.57,5.4-9.91,10.1-11.92,4.02-1.72,8.41-1.58,12.35.38l142.29,70.8c.28.12.54.26.8.43,1.26.69,2.47,1.6,3.61,2.71.29.29.53.56.77.84,1.01,1.1,1.83,2.24,2.52,3.48.11.17.21.34.31.53.59,1.11,1.1,2.32,1.51,3.61l.09.32c.06.25.11.48.15.71v.07c.1.33.18.67.25,1.04.39,1.74.58,3.35.58,4.94,0,1.48-.18,3.03-.57,4.86-.07.38-.15.73-.25,1.11-.07.35-.12.62-.2.87l-.05.17c-.41,1.27-.9,2.47-1.48,3.56-.14.28-.28.5-.38.65-.68,1.19-1.52,2.35-2.48,3.42-.28.3-.52.56-.77.81l-.08.07c-1.11,1.06-2.29,1.95-3.52,2.64-.22.15-.44.27-.68.39l-131.34,65.36v23.96c-.05.99-.15,1.99-.32,2.96-.17,1.01-.41,2.03-.72,3.01-1.72,5.57-5.4,9.91-10.1,11.92-1.87.8-3.82,1.2-5.76,1.2ZM15.2,146.6l142.14,70.72c1.31.66,2.64.7,3.96.14,1.99-.85,3.63-2.92,4.48-5.68.17-.56.31-1.14.41-1.73.09-.54.15-1.07.18-1.61v-29.83l137-68.21c.53-.28,1.06-.68,1.6-1.18.13-.13.25-.26.37-.4.48-.54.9-1.12,1.26-1.76.07-.12.13-.23.2-.32.26-.5.5-1.07.71-1.69.05-.27.1-.48.15-.68.05-.2.08-.33.11-.47l.03-.17c.24-1.15.36-2.08.36-2.86,0-.86-.11-1.78-.35-2.82l-.04-.21c-.02-.12-.05-.24-.08-.37l-.05-.2c-.05-.22-.09-.43-.13-.64h0c-.2-.59-.43-1.13-.68-1.62-.01-.02-.03-.05-.05-.07l-.18-.3c-.33-.62-.74-1.18-1.27-1.76l-.11-.12c-.11-.13-.19-.22-.27-.31-.48-.47-1.01-.87-1.5-1.11l-.51-.28L160.81,20.36c-1.31-.66-2.64-.7-3.96-.14-1.99.85-3.63,2.92-4.48,5.68-.17.56-.31,1.14-.41,1.73-.09.53-.15,1.07-.18,1.61v29.83L14.78,127.28c-.53.28-1.06.68-1.6,1.18-.13.13-.25.26-.38.4-.48.54-.9,1.12-1.26,1.76-.07.12-.13.23-.19.32-.26.5-.5,1.07-.71,1.69-.05.27-.1.48-.15.68-.05.2-.08.32-.11.47l-.03.17c-.24,1.15-.36,2.08-.36,2.86,0,.86.11,1.78.35,2.82l.04.21c.02.12.05.24.08.37l.05.2c.05.22.09.43.13.64h0c.2.59.43,1.13.68,1.62.02.02.03.05.05.08l.17.29c.34.62.74,1.18,1.28,1.76l.11.12c.11.13.19.22.27.31.48.47,1.01.87,1.5,1.11l.5.27ZM15.76,147.05l.02.02s-.02-.01-.02-.02ZM302.36,90.6s.01.01.02.02l-.02-.02Z"/>
        <path class="cls-1" d="M149.81,291c-1.84,0-3.68-.43-5.41-1.3l-103.32-51.41-.68-.1-.77-.66c-.93-.54-1.81-1.22-2.65-2.04-.24-.24-.43-.46-.63-.68-.79-.87-1.44-1.76-1.99-2.74-.1-.15-.18-.3-.27-.46-.46-.88-.86-1.83-1.19-2.84l-.09-.32c-.05-.21-.09-.4-.13-.6-.07-.26-.13-.52-.18-.78-.3-1.36-.45-2.63-.45-3.88,0-1.17.14-2.39.44-3.81.05-.29.11-.56.19-.85.05-.26.1-.49.16-.7l.05-.17c.32-1,.71-1.94,1.16-2.79.11-.23.23-.42.33-.58.53-.93,1.2-1.85,1.95-2.69.22-.24.41-.44.61-.64l.08-.08c.88-.84,1.82-1.54,2.8-2.1.2-.13.41-.25.62-.35l95.1-47.33v-16.71c.04-.78.12-1.57.25-2.33.13-.79.32-1.59.56-2.37,1.38-4.45,4.34-7.92,8.13-9.55,3.31-1.41,6.91-1.3,10.15.31l103.32,51.41.68.1.77.66c.92.54,1.81,1.22,2.64,2.04.24.24.44.46.63.68.79.87,1.44,1.76,1.99,2.74.1.15.18.3.27.46.46.88.86,1.83,1.19,2.84l.09.32c.05.21.09.4.13.6.07.26.13.52.18.79.3,1.36.45,2.63.45,3.87,0,1.17-.14,2.39-.44,3.81-.05.29-.11.56-.19.85-.05.26-.1.48-.16.7l-.05.18c-.32,1-.71,1.93-1.16,2.79-.11.23-.23.42-.33.58-.54.94-1.2,1.85-1.95,2.69-.22.24-.41.44-.61.64l-.08.08c-.88.84-1.82,1.55-2.81,2.11-.19.12-.39.23-.59.33l-95.12,47.34v16.71c-.04.78-.12,1.57-.25,2.33-.13.79-.32,1.6-.56,2.37-1.37,4.44-4.34,7.92-8.13,9.54-1.54.66-3.14.98-4.74.98ZM45.25,229.2l103.61,51.55c.61.3,1.16.32,1.76.07,1.07-.46,2.01-1.69,2.51-3.3.11-.35.2-.72.26-1.09.06-.33.09-.66.11-.99v-22.58l100.45-49.99s.06-.04.09-.06l.17-.09c.27-.14.56-.36.85-.64.07-.07.14-.15.22-.23.28-.31.53-.66.74-1.03.05-.09.1-.17.15-.25.14-.27.26-.58.38-.91.04-.18.07-.34.11-.49.03-.12.05-.18.06-.24l.03-.17c.16-.75.24-1.34.24-1.8,0-.52-.07-1.1-.22-1.76l-.04-.2s-.02-.09-.03-.13l-.05-.21c-.04-.15-.07-.29-.09-.44-.11-.31-.23-.6-.36-.86l-.17-.29c-.19-.35-.42-.67-.74-1.02l-.26-.3c-.31-.3-.59-.47-.72-.54l-.49-.26-103.61-51.55c-.61-.3-1.16-.32-1.76-.07-1.07.46-2.01,1.69-2.51,3.3-.11.35-.2.72-.26,1.09-.06.33-.09.66-.11.99v22.58l-100.45,49.99s-.06.04-.09.06l-.16.09c-.27.15-.56.36-.86.64-.07.07-.14.15-.22.23-.28.31-.53.66-.74,1.03-.05.09-.1.18-.15.25-.14.27-.26.57-.38.91-.04.18-.07.34-.11.49-.03.12-.05.17-.06.23l-.03.17c-.16.75-.24,1.33-.24,1.8,0,.53.07,1.1.22,1.76l.04.2s.02.09.03.13l.05.21c.04.15.07.29.09.44.11.31.23.6.36.86l.17.3c.19.35.42.67.74,1.02l.26.29c.31.3.59.47.72.54l.49.26ZM39.21,237.17s.05.04.07.06l-.07-.06ZM45.82,229.66l.02.02s-.01-.01-.02-.02ZM42.94,226.94s0,0,0,.01v.02s0-.02,0-.03ZM256.1,193.19s.01.02.02.03c0,0,0,0,0-.01v-.02ZM253.22,190.48s.01.01.02.02l-.02-.02ZM259.77,182.93l.07.06s-.05-.04-.07-.06Z"/>
      </g>
    </g>
  </g>
</svg>