<svg width="28" height="40" viewBox="0 0 28 40" fill="none" xmlns="http://www.w3.org/2000/svg">
<path fill-rule="evenodd" clip-rule="evenodd" d="M8 4C6.93913 4 5.92172 4.42143 5.17157 5.17157C4.42143 5.92172 4 6.93913 4 8C4 9.06086 4.42143 10.0783 5.17157 10.8284C5.92172 11.5786 6.93913 12 8 12H12V4H8ZM16 4V12H20C21.0609 12 22.0783 11.5786 22.8284 10.8284C23.5786 10.0783 24 9.06087 24 8C24 6.93913 23.5786 5.92172 22.8284 5.17157C22.0783 4.42143 21.0609 4 20 4H16ZM2.34315 2.34315C3.84344 0.842855 5.87827 0 8 0H20C22.1217 0 24.1566 0.842855 25.6569 2.34315C27.1571 3.84344 28 5.87827 28 8C28 10.1217 27.1571 12.1566 25.6569 13.6569C24.1566 15.1571 22.1217 16 20 16H8C5.87827 16 3.84344 15.1571 2.34315 13.6569C0.842855 12.1566 0 10.1217 0 8C0 5.87827 0.842855 3.84344 2.34315 2.34315Z" fill="#0069F6"/>
<path fill-rule="evenodd" clip-rule="evenodd" d="M8 16C6.93913 16 5.92172 16.4214 5.17157 17.1716C4.42143 17.9217 4 18.9391 4 20C4 21.0609 4.42143 22.0783 5.17157 22.8284C5.92172 23.5786 6.93913 24 8 24H12V16H8ZM15.8233 13.1768C15.5095 12.4829 14.8111 12 14 12H8C5.87827 12 3.84344 12.8429 2.34315 14.3431C0.842855 15.8434 0 17.8783 0 20C0 22.1217 0.842855 24.1566 2.34315 25.6569C2.46166 25.7754 2.58351 25.8898 2.70848 26C2.58351 26.1102 2.46166 26.2246 2.34315 26.3431C0.842855 27.8434 0 29.8783 0 32C0 34.1217 0.842855 36.1566 2.34315 37.6568C3.84344 39.1571 5.87827 40 8 40C10.1217 40 12.1566 39.1571 13.6569 37.6568C15.1571 36.1566 16 34.1217 16 32V26.9282C17.2058 27.6243 18.5835 28 20 28C22.1217 28 24.1566 27.1571 25.6569 25.6569C27.1571 24.1566 28 22.1217 28 20C28 17.8783 27.1571 15.8434 25.6569 14.3431C24.1566 12.8429 22.1217 12 20 12C18.5138 12 17.0703 12.4135 15.8233 13.1768ZM12 28H8C6.93913 28 5.92172 28.4214 5.17157 29.1716C4.42143 29.9217 4 30.9391 4 32C4 33.0609 4.42143 34.0783 5.17157 34.8284C5.92172 35.5786 6.93913 36 8 36C9.06087 36 10.0783 35.5786 10.8284 34.8284C11.5786 34.0783 12 33.0609 12 32V28ZM16 20C16 21.0609 16.4214 22.0783 17.1716 22.8284C17.9217 23.5786 18.9391 24 20 24C21.0609 24 22.0783 23.5786 22.8284 22.8284C23.5786 22.0783 24 21.0609 24 20C24 18.9391 23.5786 17.9217 22.8284 17.1716C22.0783 16.4214 21.0609 16 20 16C18.9391 16 17.9217 16.4214 17.1716 17.1716C16.4214 17.9217 16 18.9391 16 20Z" fill="#0069F6"/>
</svg>
