<?xml version="1.0" encoding="UTF-8"?>
<svg id="Layer_2" xmlns="http://www.w3.org/2000/svg" viewBox="0 0 739.27 653.36">
  <defs>
    <style>
      .cls-1 {
        fill: #522b95;
      }
    </style>
  </defs>
  <g id="Capa_1">
    <g>
      <path class="cls-1" d="M370.55,506.62c-5.21,0-10.41-1.23-15.31-3.67L24.61,338.44c-.64-.27-1.26-.61-1.86-1-2.93-1.6-5.74-3.72-8.38-6.3-.67-.67-1.22-1.29-1.79-1.95-2.34-2.57-4.26-5.22-5.87-8.09-.26-.4-.5-.8-.72-1.23-1.36-2.57-2.54-5.39-3.51-8.37l-.22-.76c-.14-.57-.25-1.11-.35-1.64l-.03-.17c-.21-.77-.39-1.57-.55-2.41-.9-4.04-1.34-7.79-1.34-11.47,0-3.45.42-7.04,1.32-11.3.16-.88.35-1.7.58-2.58.15-.81.28-1.42.45-2.01l.12-.42c.95-2.96,2.1-5.74,3.43-8.26.32-.66.65-1.17.88-1.52,1.6-2.82,3.5-5.44,5.75-7.95.64-.7,1.19-1.29,1.78-1.87l.19-.19c2.58-2.46,5.33-4.52,8.18-6.13.51-.34,1.03-.64,1.57-.89L329.45,100.04v-55.68c.11-2.31.35-4.63.74-6.88.39-2.35.96-4.71,1.67-7,4-12.94,12.56-23.03,23.47-27.7,9.35-3.99,19.54-3.68,28.7.89l330.63,164.51c.65.28,1.27.61,1.86,1,2.92,1.6,5.74,3.72,8.38,6.3.67.67,1.23,1.29,1.79,1.95,2.34,2.56,4.26,5.22,5.86,8.09.26.4.5.79.72,1.22,1.36,2.57,2.54,5.39,3.51,8.38l.21.75c.14.57.25,1.12.35,1.66l.03.17c.21.77.39,1.57.55,2.41.9,4.04,1.34,7.79,1.34,11.47,0,3.44-.42,7.04-1.32,11.3-.16.88-.35,1.7-.58,2.58-.15.81-.29,1.43-.45,2.03l-.12.4c-.95,2.96-2.1,5.74-3.43,8.27-.32.66-.65,1.17-.88,1.51-1.58,2.77-3.52,5.47-5.75,7.95-.64.7-1.2,1.29-1.79,1.88l-.18.17c-2.58,2.47-5.33,4.53-8.19,6.14-.51.34-1.03.64-1.58.9l-305.19,151.88v55.68c-.11,2.31-.35,4.63-.74,6.88-.39,2.35-.96,4.71-1.67,7-4,12.94-12.56,23.03-23.47,27.7-4.34,1.86-8.87,2.78-13.39,2.78ZM35.33,317.82l330.28,164.34c3.05,1.52,6.14,1.63,9.2.32,4.63-1.98,8.43-6.79,10.41-13.2.4-1.31.72-2.66.95-4.02.21-1.24.35-2.5.41-3.75v-69.32l318.34-158.49c1.22-.65,2.47-1.58,3.71-2.75.29-.29.58-.59.87-.92,1.12-1.25,2.1-2.61,2.92-4.09.16-.28.31-.53.45-.75.61-1.17,1.16-2.49,1.64-3.92.12-.63.22-1.11.34-1.57.12-.46.2-.76.26-1.09l.08-.4c.57-2.67.85-4.84.85-6.64,0-2-.27-4.14-.81-6.56l-.1-.48c-.05-.29-.11-.57-.19-.85l-.13-.48c-.12-.5-.22-.99-.31-1.48h0c-.46-1.36-.99-2.62-1.57-3.77-.03-.05-.07-.11-.1-.16l-.41-.7c-.78-1.44-1.72-2.74-2.96-4.09l-.25-.28c-.26-.31-.43-.52-.62-.71-1.12-1.09-2.35-2.02-3.48-2.59l-1.2-.64L373.66,24.47c-3.05-1.52-6.14-1.63-9.2-.32-4.63,1.98-8.43,6.79-10.41,13.2-.4,1.31-.72,2.66-.95,4.02-.21,1.24-.35,2.49-.41,3.75v69.32L34.35,272.92c-1.22.65-2.47,1.57-3.71,2.75-.3.3-.58.6-.88.93-1.12,1.25-2.09,2.61-2.92,4.09-.16.28-.31.53-.45.75-.61,1.17-1.16,2.48-1.64,3.92-.12.63-.22,1.11-.34,1.58-.12.45-.2.75-.25,1.09l-.08.4c-.57,2.67-.84,4.84-.84,6.64,0,2,.27,4.14.81,6.56l.1.48c.05.29.11.57.19.85l.13.48c.12.5.22.99.31,1.48h0c.46,1.37.99,2.63,1.58,3.77.04.06.08.12.11.18l.4.68c.78,1.44,1.72,2.74,2.97,4.1l.24.27c.26.31.43.52.62.71,1.12,1.09,2.35,2.02,3.48,2.59l1.16.62ZM36.62,318.86l.06.05s-.04-.03-.06-.05ZM702.58,187.7s.03.03.05.04l-.05-.04Z"/>
      <path class="cls-1" d="M348.11,653.36c-4.28,0-8.55-1.01-12.57-3.02l-240.08-119.46-1.59-.24-1.78-1.54c-2.15-1.25-4.21-2.84-6.15-4.73-.56-.56-1.01-1.06-1.47-1.59-1.83-2.01-3.34-4.1-4.62-6.36-.22-.35-.43-.69-.62-1.07-1.08-2.04-2.01-4.25-2.76-6.6l-.22-.75c-.12-.48-.21-.94-.29-1.39-.16-.61-.3-1.21-.42-1.82-.7-3.16-1.04-6.1-1.04-9,0-2.73.32-5.54,1.02-8.85.12-.67.27-1.31.44-1.97.12-.61.23-1.13.37-1.63l.12-.4c.74-2.32,1.64-4.5,2.69-6.49.27-.54.53-.98.77-1.34,1.24-2.17,2.78-4.3,4.54-6.26.52-.57.95-1.03,1.41-1.49l.19-.18c2.04-1.95,4.22-3.59,6.5-4.88.46-.3.94-.57,1.44-.81l220.98-109.97v-38.83c.09-1.82.28-3.64.58-5.42.31-1.84.75-3.71,1.31-5.51,3.2-10.33,10.08-18.41,18.9-22.18,7.68-3.29,16.06-3.03,23.58.73l240.08,119.46,1.59.24,1.78,1.54c2.15,1.25,4.21,2.84,6.14,4.73.56.56,1.01,1.06,1.47,1.59,1.83,2.01,3.35,4.1,4.62,6.36.23.35.43.7.62,1.07,1.08,2.04,2.01,4.25,2.76,6.6l.21.75c.12.48.21.94.29,1.39.16.61.3,1.21.42,1.82.7,3.16,1.04,6.1,1.04,9,0,2.72-.32,5.54-1.02,8.85-.12.67-.27,1.3-.44,1.97-.12.61-.23,1.12-.37,1.62l-.12.41c-.74,2.31-1.64,4.49-2.69,6.48-.27.54-.53.98-.77,1.34-1.25,2.18-2.78,4.3-4.54,6.26-.52.57-.96,1.03-1.42,1.49l-.18.18c-2.05,1.96-4.24,3.6-6.52,4.9-.44.29-.9.54-1.37.77l-221.03,110v38.83c-.09,1.82-.28,3.64-.58,5.42-.31,1.85-.75,3.71-1.31,5.51-3.19,10.32-10.08,18.41-18.9,22.18-3.57,1.53-7.29,2.29-11.01,2.29ZM105.15,509.75l240.76,119.79c1.41.7,2.7.75,4.09.16,2.49-1.07,4.68-3.94,5.83-7.68.25-.82.46-1.67.6-2.53.13-.76.21-1.53.26-2.3v-52.46l233.42-116.17c.07-.04.15-.09.22-.13l.38-.21c.63-.33,1.3-.83,1.99-1.48.17-.17.33-.35.51-.54.65-.72,1.23-1.53,1.71-2.4.12-.22.24-.41.35-.58.32-.63.62-1.34.88-2.11.08-.42.16-.78.25-1.13.08-.28.11-.41.13-.55l.08-.39c.37-1.73.55-3.1.55-4.19,0-1.22-.17-2.56-.52-4.1l-.1-.47c-.02-.11-.04-.21-.07-.31l-.13-.48c-.08-.35-.15-.68-.22-1.02-.25-.72-.53-1.39-.84-2l-.4-.69c-.44-.82-.99-1.57-1.71-2.36l-.61-.69c-.72-.7-1.37-1.09-1.68-1.25l-1.13-.6-240.76-119.79c-1.41-.7-2.7-.75-4.09-.16-2.5,1.07-4.68,3.94-5.83,7.68-.25.82-.45,1.67-.6,2.53-.13.76-.22,1.53-.26,2.29v52.46l-233.42,116.16c-.07.04-.15.09-.22.13l-.38.21c-.63.34-1.3.84-1.99,1.48-.17.17-.34.35-.51.54-.65.72-1.23,1.53-1.71,2.4-.12.22-.24.41-.35.59-.32.63-.61,1.34-.88,2.11-.08.42-.16.79-.26,1.14-.07.27-.11.4-.13.54l-.08.4c-.37,1.73-.55,3.1-.55,4.19,0,1.22.17,2.56.52,4.1l.1.47c.02.11.04.21.07.31l.13.48c.08.35.15.69.22,1.02.25.72.53,1.39.84,2l.4.69c.44.82.99,1.57,1.71,2.36l.6.68c.73.71,1.37,1.1,1.68,1.25l1.13.6ZM91.11,528.26c.06.05.11.1.17.15l-.17-.15ZM106.47,510.82l.04.04s-.03-.03-.04-.04ZM99.78,504.49s0,.02.01.03l.02.04s-.02-.05-.04-.07ZM595.08,426.09s.03.05.04.07c0,0,0-.02-.01-.03l-.02-.05ZM588.39,419.79s.03.03.05.04l-.05-.04ZM603.62,402.24l.17.15c-.06-.05-.11-.1-.17-.15Z"/>
    </g>
  </g>
</svg>