<svg width="300" height="200" xmlns="http://www.w3.org/2000/svg">
  <g fill="none" fill-rule="evenodd">
    <path fill="#FFF" d="M0 0h300v200H0z"/>
    <g fill="#767676">
      <path d="M53 20h194v4H53zM53 44h194v4H53zM53 32h194v4H53z"/>
    </g>
    <g fill="#767676">
      <path d="M53 152h194v4H53zM53 176h194v4H53zM53 164h194v4H53z"/>
    </g>
    <path fill="#1476D0" d="M53 63h194v74H53z"/>
    <path d="M158.958 86.178c-2.214-1.401-4.295-1.95-6.387-3.346-1.29-.893-3.088-3.006-4.59-4.832-.29 2.928-1.168 4.115-2.17 4.962-2.125 1.696-3.46 2.205-5.296 3.222-1.547.803-9.932 5.89-9.932 16.826S139.641 122 149.695 122c10.053 0 18.777-7.415 18.777-18.651s-8.178-16.323-9.514-17.17" fill="#FEFEFE" opacity=".45"/>
  </g>
</svg>
