<?xml version="1.0" encoding="UTF-8"?>
<svg xmlns="http://www.w3.org/2000/svg" xmlns:xlink="http://www.w3.org/1999/xlink" width="754.82pt" height="87pt" viewBox="0 0 754.82 87" version="1.1">
  <defs>
    <clipPath id="clip1">
      <path d="M 655 67 L 754.820313 67 L 754.820313 86 L 655 86 Z M 655 67 "/>
    </clipPath>
    <clipPath id="clip2">
      <path d="M 655 0 L 754.820313 0 L 754.820313 20 L 655 20 Z M 655 0 "/>
    </clipPath>
    <clipPath id="clip3">
      <path d="M 51 114 L 68 114 L 68 131.800781 L 51 131.800781 Z M 51 114 "/>
    </clipPath>
    <clipPath id="clip4">
      <path d="M 77 114 L 92 114 L 92 131.800781 L 77 131.800781 Z M 77 114 "/>
    </clipPath>
    <clipPath id="clip5">
      <path d="M 101 114 L 117 114 L 117 131.800781 L 101 131.800781 Z M 101 114 "/>
    </clipPath>
    <clipPath id="clip6">
      <path d="M 126 114 L 130 114 L 130 131.800781 L 126 131.800781 Z M 126 114 "/>
    </clipPath>
    <clipPath id="clip7">
      <path d="M 139 114 L 158 114 L 158 131.800781 L 139 131.800781 Z M 139 114 "/>
    </clipPath>
    <clipPath id="clip8">
      <path d="M 167 114 L 184 114 L 184 131.800781 L 167 131.800781 Z M 167 114 "/>
    </clipPath>
    <clipPath id="clip9">
      <path d="M 193 114 L 209 114 L 209 131.800781 L 193 131.800781 Z M 193 114 "/>
    </clipPath>
    <clipPath id="clip10">
      <path d="M 218 114 L 233 114 L 233 131.800781 L 218 131.800781 Z M 218 114 "/>
    </clipPath>
    <clipPath id="clip11">
      <path d="M 261 114 L 278 114 L 278 131.800781 L 261 131.800781 Z M 261 114 "/>
    </clipPath>
    <clipPath id="clip12">
      <path d="M 286 114 L 304 114 L 304 131.800781 L 286 131.800781 Z M 286 114 "/>
    </clipPath>
    <clipPath id="clip13">
      <path d="M 313 114 L 328 114 L 328 131.800781 L 313 131.800781 Z M 313 114 "/>
    </clipPath>
    <clipPath id="clip14">
      <path d="M 336 114 L 354 114 L 354 131.800781 L 336 131.800781 Z M 336 114 "/>
    </clipPath>
    <clipPath id="clip15">
      <path d="M 362 114 L 388 114 L 388 131.800781 L 362 131.800781 Z M 362 114 "/>
    </clipPath>
    <clipPath id="clip16">
      <path d="M 396 114 L 415 114 L 415 131.800781 L 396 131.800781 Z M 396 114 "/>
    </clipPath>
    <clipPath id="clip17">
      <path d="M 424 114 L 441 114 L 441 131.800781 L 424 131.800781 Z M 424 114 "/>
    </clipPath>
    <clipPath id="clip18">
      <path d="M 450 114 L 465 114 L 465 131.800781 L 450 131.800781 Z M 450 114 "/>
    </clipPath>
    <clipPath id="clip19">
      <path d="M 494 114 L 511 114 L 511 131.800781 L 494 131.800781 Z M 494 114 "/>
    </clipPath>
    <clipPath id="clip20">
      <path d="M 519 114 L 537 114 L 537 131.800781 L 519 131.800781 Z M 519 114 "/>
    </clipPath>
    <clipPath id="clip21">
      <path d="M 545 114 L 561 114 L 561 131.800781 L 545 131.800781 Z M 545 114 "/>
    </clipPath>
    <clipPath id="clip22">
      <path d="M 569 114 L 587 114 L 587 131.800781 L 569 131.800781 Z M 569 114 "/>
    </clipPath>
    <clipPath id="clip23">
      <path d="M 595 114 L 613 114 L 613 131.800781 L 595 131.800781 Z M 595 114 "/>
    </clipPath>
    <clipPath id="clip24">
      <path d="M 621 114 L 625 114 L 625 131.800781 L 621 131.800781 Z M 621 114 "/>
    </clipPath>
    <clipPath id="clip25">
      <path d="M 634 114 L 652 114 L 652 131.800781 L 634 131.800781 Z M 634 114 "/>
    </clipPath>
    <clipPath id="clip26">
      <path d="M 661 114 L 678 114 L 678 131.800781 L 661 131.800781 Z M 661 114 "/>
    </clipPath>
    <clipPath id="clip27">
      <path d="M 687 114 L 704 114 L 704 131.800781 L 687 131.800781 Z M 687 114 "/>
    </clipPath>
  </defs>
  <g id="surface1">
    <path style=" stroke:none;fill-rule:nonzero;fill:rgb(14.117432%,15.686035%,16.470337%);fill-opacity:1;" d="M 183.492188 18.644531 L 179.191406 18.644531 C 171.789063 18.644531 164.390625 18.632813 156.992188 18.65625 C 155.84375 18.660156 154.675781 18.722656 153.546875 18.929688 C 150.800781 19.433594 149.515625 20.886719 149.507813 23.703125 C 149.46875 36.71875 149.492188 49.738281 149.492188 62.753906 C 149.492188 62.941406 149.503906 63.125 149.527344 63.308594 C 149.832031 65.671875 150.945313 66.996094 153.308594 67.46875 C 154.746094 67.75 156.242188 67.882813 157.710938 67.886719 C 174.867188 67.914063 192.027344 67.90625 209.183594 67.894531 C 210.429688 67.894531 211.679688 67.820313 212.921875 67.691406 C 215.78125 67.402344 216.933594 66.28125 217.320313 63.457031 C 217.441406 62.589844 217.511719 61.710938 217.511719 60.835938 C 217.527344 49.113281 217.527344 37.386719 217.511719 25.660156 C 217.511719 24.699219 217.425781 23.726563 217.285156 22.769531 C 216.925781 20.351563 215.640625 19.121094 213.171875 18.851563 C 212.023438 18.722656 210.867188 18.65625 209.714844 18.652344 C 200.972656 18.640625 192.230469 18.644531 183.492188 18.644531 M 183.527344 0.09375 C 194.304688 0.09375 205.085938 0.0234375 215.859375 0.128906 C 220.246094 0.171875 224.5 1.105469 228.316406 3.4375 C 234.015625 6.925781 236.617188 12.3125 237.441406 18.683594 C 237.757813 21.097656 237.773438 23.5625 237.78125 26.003906 C 237.8125 38.101563 237.789063 50.199219 237.796875 62.292969 C 237.800781 66.867188 237.230469 71.328125 235.132813 75.464844 C 232.046875 81.550781 226.828125 84.726563 220.296875 85.902344 C 217.945313 86.324219 215.519531 86.503906 213.128906 86.511719 C 193.421875 86.558594 173.71875 86.597656 154.011719 86.476563 C 150.582031 86.457031 147.0625 86.03125 143.753906 85.15625 C 136.347656 83.199219 131.832031 78.167969 130.128906 70.757813 C 129.546875 68.21875 129.234375 65.558594 129.222656 62.953125 C 129.160156 49.101563 129.195313 35.25 129.28125 21.402344 C 129.304688 17.628906 130.132813 13.96875 131.878906 10.589844 C 135.257813 4.066406 141.019531 1.183594 148.023438 0.402344 C 150.679688 0.105469 153.371094 0.0429688 156.050781 0.0273438 C 165.210938 -0.015625 174.367188 0.0117188 183.527344 0.0117188 C 183.527344 0.0390625 183.527344 0.0664063 183.527344 0.09375 "/>
    <path style=" stroke:none;fill-rule:nonzero;fill:rgb(14.117432%,15.686035%,16.470337%);fill-opacity:1;" d="M 312.464844 85.984375 C 298.628906 85.984375 284.792969 85.988281 270.957031 85.984375 C 267.035156 85.984375 265.394531 84.359375 265.371094 80.429688 C 265.351563 76.640625 265.425781 72.855469 265.339844 69.066406 C 265.304688 67.695313 265.78125 67.386719 267.082031 67.386719 C 294.199219 67.421875 321.316406 67.417969 348.429688 67.402344 C 349.675781 67.402344 350.929688 67.320313 352.160156 67.140625 C 354.175781 66.84375 355.261719 65.695313 355.507813 63.652344 C 355.648438 62.511719 355.710938 61.351563 355.714844 60.199219 C 355.730469 48.976563 355.738281 37.753906 355.710938 26.53125 C 355.703125 25.109375 355.574219 23.664063 355.3125 22.269531 C 354.957031 20.375 353.828125 19.40625 351.890625 19.1875 C 350.699219 19.050781 349.492188 18.992188 348.289063 18.992188 C 321.359375 18.984375 294.429688 18.988281 267.496094 18.988281 C 265.371094 18.988281 265.367188 18.984375 265.367188 16.882813 C 265.367188 13.324219 265.359375 9.769531 265.371094 6.214844 C 265.382813 2.148438 267.144531 0.386719 271.199219 0.386719 C 298.085938 0.386719 324.96875 0.386719 351.851563 0.390625 C 355.566406 0.390625 359.242188 0.675781 362.789063 1.914063 C 369.839844 4.375 373.773438 9.472656 375.148438 16.636719 C 375.570313 18.84375 375.789063 21.125 375.796875 23.371094 C 375.84375 37.179688 375.84375 50.992188 375.761719 64.800781 C 375.738281 68.617188 374.890625 72.300781 373.125 75.742188 C 370.253906 81.335938 365.4375 84.234375 359.476563 85.347656 C 356.859375 85.835938 354.144531 85.945313 351.472656 85.957031 C 338.46875 86.015625 325.46875 85.984375 312.464844 85.984375 "/>
    <path style=" stroke:none;fill-rule:nonzero;fill:rgb(14.117432%,15.686035%,16.470337%);fill-opacity:1;" d="M 576.636719 32.320313 C 591.394531 32.320313 606.152344 32.320313 620.910156 32.324219 C 621.605469 32.324219 622.304688 32.324219 622.988281 32.421875 C 625.527344 32.78125 626.949219 34.347656 626.984375 36.910156 C 627.03125 40.003906 627.035156 43.097656 626.984375 46.191406 C 626.9375 48.914063 625.414063 50.582031 622.730469 50.953125 C 622.136719 51.035156 621.53125 51.023438 620.929688 51.023438 C 599.695313 51.027344 578.460938 51.027344 557.226563 51.027344 C 556.808594 51.027344 556.390625 51.027344 555.976563 51.027344 C 551.964844 51.046875 549.824219 52.613281 549.886719 57.046875 C 549.992188 64.804688 549.921875 72.5625 549.914063 80.320313 C 549.910156 84.367188 548.324219 85.9375 544.273438 85.945313 C 541.3125 85.945313 538.351563 85.949219 535.390625 85.945313 C 531.3125 85.9375 529.628906 84.277344 529.628906 80.242188 C 529.625 64.910156 529.625 49.582031 529.628906 34.25 C 529.628906 32.324219 529.628906 32.320313 531.53125 32.316406 C 546.566406 32.316406 561.601563 32.316406 576.636719 32.320313 "/>
    <path style=" stroke:none;fill-rule:nonzero;fill:rgb(14.117432%,15.686035%,16.470337%);fill-opacity:1;" d="M 450.476563 32.316406 C 465.234375 32.316406 479.996094 32.3125 494.753906 32.324219 C 495.582031 32.324219 496.425781 32.351563 497.238281 32.496094 C 499.386719 32.886719 500.675781 34.3125 500.726563 36.507813 C 500.800781 39.785156 500.804688 43.066406 500.742188 46.34375 C 500.6875 49.058594 499.242188 50.589844 496.539063 50.960938 C 495.945313 51.042969 495.339844 51.027344 494.738281 51.027344 C 473.316406 51.03125 451.898438 51.03125 430.476563 51.035156 C 429.78125 51.035156 429.082031 51.019531 428.398438 51.109375 C 425.121094 51.554688 423.785156 53.074219 423.777344 56.378906 C 423.765625 64.601563 423.804688 72.820313 423.734375 81.039063 C 423.726563 82.035156 423.347656 83.117188 422.851563 84.003906 C 422.039063 85.46875 420.546875 85.925781 418.941406 85.9375 C 415.472656 85.957031 412.003906 85.992188 408.53125 85.929688 C 405.171875 85.871094 403.546875 84.167969 403.546875 80.808594 C 403.539063 65.203125 403.558594 49.59375 403.515625 33.984375 C 403.511719 32.640625 403.902344 32.28125 405.230469 32.285156 C 420.3125 32.328125 435.394531 32.3125 450.476563 32.316406 "/>
    <path style=" stroke:none;fill-rule:nonzero;fill:rgb(14.117432%,15.686035%,16.470337%);fill-opacity:1;" d="M 531.613281 19.15625 C 529.628906 19.15625 529.628906 19.164063 529.628906 17.152344 C 529.625 13.273438 529.621094 9.394531 529.628906 5.515625 C 529.636719 1.910156 531.261719 0.296875 534.886719 0.296875 C 564.074219 0.296875 593.257813 0.339844 622.441406 0.25 C 626.644531 0.238281 628.378906 2.738281 628.230469 6.113281 C 628.109375 8.832031 628.242188 11.558594 628.179688 14.28125 C 628.113281 17.175781 626.632813 18.683594 623.746094 18.921875 C 623.101563 18.976563 622.453125 18.972656 621.804688 18.972656 "/>
    <path style=" stroke:none;fill-rule:nonzero;fill:rgb(14.117432%,15.686035%,16.470337%);fill-opacity:1;" d="M 405.363281 19.160156 C 403.550781 19.160156 403.542969 19.164063 403.542969 17.339844 C 403.539063 13.230469 403.53125 9.121094 403.546875 5.011719 C 403.558594 1.941406 405.179688 0.300781 408.257813 0.296875 C 437.769531 0.289063 467.28125 0.289063 496.796875 0.300781 C 500.234375 0.300781 502.019531 2.082031 502.058594 5.492188 C 502.089844 8.355469 502.09375 11.21875 502.054688 14.078125 C 502.011719 17.140625 500.441406 18.742188 497.367188 18.949219 C 496.816406 18.988281 496.257813 18.980469 495.703125 18.980469 "/>
    <g clip-path="url(#clip1)" clip-rule="nonzero">
      <path style=" stroke:none;fill-rule:nonzero;fill:rgb(14.117432%,15.686035%,16.470337%);fill-opacity:1;" d="M 705.320313 85.972656 C 690.566406 85.976563 675.8125 85.976563 661.058594 85.972656 C 657.53125 85.972656 655.890625 84.351563 655.863281 80.816406 C 655.847656 78.1875 655.820313 75.554688 655.878906 72.921875 C 655.917969 71.101563 656.089844 69.234375 657.921875 68.21875 C 658.6875 67.789063 659.628906 67.472656 660.496094 67.460938 C 665.074219 67.386719 669.652344 67.421875 674.234375 67.421875 C 699.117188 67.421875 724.003906 67.421875 748.886719 67.425781 C 749.535156 67.425781 750.1875 67.402344 750.828125 67.472656 C 753.335938 67.730469 754.773438 69.28125 754.796875 71.785156 C 754.824219 74.972656 754.820313 78.15625 754.796875 81.34375 C 754.777344 84.3125 753.105469 85.96875 750.140625 85.96875 C 735.203125 85.976563 720.261719 85.972656 705.320313 85.972656 "/>
    </g>
    <g clip-path="url(#clip2)" clip-rule="nonzero">
      <path style=" stroke:none;fill-rule:nonzero;fill:rgb(14.117432%,15.686035%,16.470337%);fill-opacity:1;" d="M 705.007813 18.972656 C 690.34375 18.972656 675.675781 18.910156 661.011719 19.023438 C 657.671875 19.046875 655.71875 16.761719 655.839844 13.929688 C 655.964844 10.980469 655.820313 8.019531 655.96875 5.070313 C 656.109375 2.175781 658.105469 0.382813 660.894531 0.386719 C 690.136719 0.386719 719.375 0.390625 748.613281 0.402344 C 749.4375 0.402344 750.304688 0.394531 751.078125 0.628906 C 753.191406 1.261719 754.273438 2.824219 754.304688 4.972656 C 754.359375 8.382813 754.367188 11.800781 754.207031 15.210938 C 754.109375 17.316406 752.503906 18.71875 750.394531 18.902344 C 749.65625 18.96875 748.914063 18.96875 748.175781 18.96875 C 733.785156 18.972656 719.398438 18.972656 705.007813 18.972656 "/>
    </g>
    <path style=" stroke:none;fill-rule:nonzero;fill:rgb(14.117432%,15.686035%,16.470337%);fill-opacity:1;" d="M 704.503906 52.441406 C 690.257813 52.445313 676.007813 52.445313 661.757813 52.441406 C 661.109375 52.441406 660.460938 52.449219 659.816406 52.398438 C 657.789063 52.230469 655.980469 50.703125 655.949219 48.703125 C 655.890625 45.019531 655.957031 41.324219 656.230469 37.652344 C 656.394531 35.417969 658.261719 34.023438 660.53125 33.929688 C 660.902344 33.917969 661.273438 33.925781 661.644531 33.925781 C 690.371094 33.925781 719.101563 33.925781 747.828125 33.925781 C 751.558594 33.925781 753.105469 35.460938 753.132813 39.226563 C 753.152344 41.816406 753.152344 44.402344 753.132813 46.988281 C 753.105469 50.914063 751.574219 52.4375 747.667969 52.441406 C 733.28125 52.445313 718.894531 52.441406 704.503906 52.441406 "/>
    <path style=" stroke:none;fill-rule:nonzero;fill:rgb(14.117432%,15.686035%,16.470337%);fill-opacity:1;" d="M 27.617188 35.21875 C 28.1875 34.824219 28.625 34.496094 29.085938 34.214844 C 46.203125 23.746094 63.359375 13.34375 80.402344 2.757813 C 83.234375 0.996094 86.035156 0.246094 89.28125 0.332031 C 93.859375 0.449219 98.441406 0.34375 103.023438 0.378906 C 105.210938 0.394531 106.394531 1.195313 107.042969 2.925781 C 107.839844 5.050781 107.238281 6.761719 105.101563 8.113281 C 101.273438 10.539063 97.417969 12.917969 93.570313 15.308594 C 82.539063 22.171875 71.507813 29.03125 60.476563 35.894531 C 59.976563 36.207031 59.503906 36.5625 58.664063 37.417969 C 59.105469 37.65625 59.601563 37.828125 59.980469 38.140625 C 72.257813 48.246094 84.53125 58.355469 96.78125 68.488281 C 100.734375 71.761719 104.648438 75.082031 108.542969 78.421875 C 110.898438 80.4375 111.097656 83.292969 108.929688 84.960938 C 108.148438 85.5625 107 85.949219 106.011719 85.972656 C 101.292969 86.074219 96.570313 85.964844 91.851563 86.039063 C 89.878906 86.070313 88.597656 84.914063 87.234375 83.8125 C 80.113281 78.066406 72.980469 72.335938 65.882813 66.5625 C 53.507813 56.503906 41.152344 46.417969 28.792969 36.335938 C 28.414063 36.027344 28.078125 35.65625 27.617188 35.21875 "/>
    <path style=" stroke:none;fill-rule:nonzero;fill:rgb(14.117432%,15.686035%,16.470337%);fill-opacity:1;" d="M 20.292969 43.21875 C 20.292969 55.410156 20.292969 38.875 20.292969 51.0625 C 20.289063 51.664063 20.296875 52.265625 20.253906 52.863281 C 20.074219 55.445313 18.386719 57.203125 15.804688 57.261719 C 12.152344 57.347656 8.496094 57.359375 4.84375 57.265625 C 1.90625 57.191406 0.199219 55.398438 0.0117188 52.464844 C -0.0078125 52.191406 0.00390625 51.910156 0 51.636719 C 0 26.84375 0 30.773438 0.0117188 5.984375 C 0.0117188 5.296875 0.078125 4.597656 0.214844 3.925781 C 0.640625 1.863281 2.164063 0.464844 4.277344 0.425781 C 8.207031 0.347656 12.140625 0.339844 16.070313 0.429688 C 18.480469 0.484375 19.988281 2.042969 20.230469 4.445313 C 20.296875 5.132813 20.289063 5.828125 20.289063 6.519531 C 20.292969 18.753906 20.292969 30.988281 20.292969 43.21875 "/>
    <path style=" stroke:none;fill-rule:nonzero;fill:rgb(65.881348%,65.881348%,66.665649%);fill-opacity:1;" d="M 20.292969 76.019531 C 20.292969 75.417969 20.296875 74.816406 20.253906 74.21875 C 20.074219 71.636719 18.386719 69.878906 15.804688 69.820313 C 12.152344 69.734375 8.496094 69.722656 4.84375 69.816406 C 1.90625 69.890625 0.199219 71.683594 0.0117188 74.613281 C -0.00390625 74.890625 0.00390625 75.167969 0.00390625 75.445313 L 0.00390625 80.34375 C 0.00390625 80.621094 -0.00390625 80.898438 0.0117188 81.175781 C 0.199219 84.109375 1.90625 85.898438 4.84375 85.972656 C 8.496094 86.070313 12.152344 86.054688 15.804688 85.972656 C 18.386719 85.910156 20.074219 84.15625 20.253906 81.574219 C 20.296875 80.976563 20.292969 80.375 20.292969 79.773438 "/>

  </g>
</svg>
